<svg width="656" height="194" viewBox="0 0 656 194" fill="none" xmlns="http://www.w3.org/2000/svg">
	<path opacity="0.1" d="M115 194C156.421 194 190 189.075 190 183C190 176.925 156.421 172 115 172C73.5786 172 40 176.925 40 183C40 189.075 73.5786 194 115 194Z" fill="black" />
	<path d="M182.5 90H47.5C43.3579 90 40 93.3375 40 97.4545V164.545C40 168.662 43.3579 172 47.5 172H182.5C186.642 172 190 168.662 190 164.545V97.4545C190 93.3375 186.642 90 182.5 90Z" fill="#4A5568" />
	<path d="M178.065 95H51.9355C48.6574 95 46 97.649 46 100.917V160.083C46 163.351 48.6574 166 51.9355 166H178.065C181.343 166 184 163.351 184 160.083V100.917C184 97.649 181.343 95 178.065 95Z" fill="#5A6C7D" />
	<path d="M182.5 0H47.5C43.3579 0 40 3.35786 40 7.5V82.5C40 86.6421 43.3579 90 47.5 90H182.5C186.642 90 190 86.6421 190 82.5V7.5C190 3.35786 186.642 0 182.5 0Z" fill="#4A5568" />
	<path d="M178.065 5H51.9355C48.6574 5 46 7.6694 46 10.9623V78.0377C46 81.3306 48.6574 84 51.9355 84H178.065C181.343 84 184 81.3306 184 78.0377V10.9623C184 7.6694 181.343 5 178.065 5Z" fill="#5A6C7D" />
	<path d="M128.68 127H101.32C98.3818 127 96 129.298 96 132.133V132.867C96 135.702 98.3818 138 101.32 138H128.68C131.618 138 134 135.702 134 132.867V132.133C134 129.298 131.618 127 128.68 127Z" fill="#CBD5E0" />
	<path d="M70 26C76.1333 22.8571 83.8 22.1837 93 23.9796" stroke="#2D3748" stroke-width="6" stroke-linecap="round" />
	<path d="M160 26C153.867 22.8571 146.2 22.1837 137 23.9796" stroke="#2D3748" stroke-width="6" stroke-linecap="round" />
	<path d="M81 69C92.598 69 102 58.2548 102 45C102 31.7452 92.598 21 81 21C69.402 21 60 31.7452 60 45C60 58.2548 69.402 69 81 69Z" fill="white" />
	<path d="M148.5 69C159.822 69 169 58.2548 169 45C169 31.7452 159.822 21 148.5 21C137.178 21 128 31.7452 128 45C128 58.2548 137.178 69 148.5 69Z" fill="white" />
	<path d="M81 60C87.6274 60 93 53.9558 93 46.5C93 39.0442 87.6274 33 81 33C74.3726 33 69 39.0442 69 46.5C69 53.9558 74.3726 60 81 60Z" fill="#2D3748" />
	<path d="M148.5 60C154.851 60 160 53.9558 160 46.5C160 39.0442 154.851 33 148.5 33C142.149 33 137 39.0442 137 46.5C137 53.9558 142.149 60 148.5 60Z" fill="#2D3748" />
	<path opacity="0.9" d="M76 46C78.7614 46 81 43.5376 81 40.5C81 37.4624 78.7614 35 76 35C73.2386 35 71 37.4624 71 40.5C71 43.5376 73.2386 46 76 46Z" fill="white" />
	<path opacity="0.9" d="M143 46C145.761 46 148 43.5376 148 40.5C148 37.4624 145.761 35 143 35C140.239 35 138 37.4624 138 40.5C138 43.5376 140.239 46 143 46Z" fill="white" />
	<path opacity="0.7" d="M81 48C82.6569 48 84 46.6569 84 45C84 43.3431 82.6569 42 81 42C79.3431 42 78 43.3431 78 45C78 46.6569 79.3431 48 81 48Z" fill="white" />
	<path opacity="0.7" d="M148.5 48C149.881 48 151 46.6569 151 45C151 43.3431 149.881 42 148.5 42C147.119 42 146 43.3431 146 45C146 46.6569 147.119 48 148.5 48Z" fill="white" />
	<path d="M89 71C106.333 79 123.667 79 141 71" stroke="#2D3748" stroke-width="6" stroke-linecap="round" />
	<path d="M40 104C25.2381 104 14.9048 107 9 113" stroke="#4A5568" stroke-width="16" stroke-linecap="round" />
	<path d="M9 122C13.9706 122 18 117.971 18 113C18 108.029 13.9706 104 9 104C4.02944 104 0 108.029 0 113C0 117.971 4.02944 122 9 122Z" fill="#5A6C7D" />
	<path d="M9 119C11.7614 119 14 116.538 14 113.5C14 110.462 11.7614 108 9 108C6.23858 108 4 110.462 4 113.5C4 116.538 6.23858 119 9 119Z" fill="#CBD5E0" />
	<path d="M190 104C204.762 104 215.095 107 221 113" stroke="#4A5568" stroke-width="16" stroke-linecap="round" />
	<path d="M221 122C225.971 122 230 117.971 230 113C230 108.029 225.971 104 221 104C216.029 104 212 108.029 212 113C212 117.971 216.029 122 221 122Z" fill="#5A6C7D" />
	<path d="M221 119C223.761 119 226 116.538 226 113.5C226 110.462 223.761 108 221 108C218.239 108 216 110.462 216 113.5C216 116.538 218.239 119 221 119Z" fill="#CBD5E0" />
	<path d="M80.8489 171.12L62.2206 172.096C60.163 172.204 58.5824 173.96 58.6902 176.017L59.2759 187.194C59.3838 189.252 61.1392 190.832 63.1969 190.725L81.8251 189.748C83.8828 189.64 85.4634 187.885 85.3555 185.827L84.7698 174.65C84.6619 172.593 82.9065 171.012 80.8489 171.12Z" fill="#4A5568" />
	<path d="M167.594 172.135L148.966 171.159C146.908 171.051 145.152 172.632 145.045 174.689L144.459 185.866C144.351 187.924 145.932 189.68 147.989 189.787L166.618 190.764C168.675 190.871 170.431 189.291 170.538 187.233L171.124 176.056C171.232 173.999 169.651 172.243 167.594 172.135Z" fill="#4A5568" />
	<path d="M44 90H186" stroke="#3A4556" stroke-width="3" />
	<path opacity="0.2" d="M188.5 0H41.5C40.6716 0 40 0.716344 40 1.6V2.4C40 3.28366 40.6716 4 41.5 4H188.5C189.328 4 190 3.28366 190 2.4V1.6C190 0.716344 189.328 0 188.5 0Z" fill="white" />
	<path opacity="0.9" d="M192.28 119H175.72C175.322 119 175 119.336 175 119.75V124.25C175 124.664 175.322 125 175.72 125H192.28C192.678 125 193 124.664 193 124.25V119.75C193 119.336 192.678 119 192.28 119Z" fill="white" />
	<mask id="path-29-outside-1_0_1" maskUnits="userSpaceOnUse" x="274" y="32" width="382" height="136" fill="black">
		<rect fill="white" x="274" y="32" width="382" height="136" />
		<path d="M326 47.3125C333.792 47.3125 340.438 48.6667 345.938 51.375V70.5L345.812 70.625C343.479 67.0417 338.562 64.6667 331.062 63.5C328.854 63.125 326.062 62.9375 322.688 62.9375C319.312 62.9375 316 63.5833 312.75 64.875C309.5 66.125 306.833 67.9167 304.75 70.25C300.708 74.7917 298.688 81.2708 298.688 89.6875C298.688 99.4792 301.25 106.771 306.375 111.562C310.625 115.562 316.25 117.562 323.25 117.562C331.167 117.562 337.583 115.875 342.5 112.5C344.292 111.292 345.812 109.792 347.062 108L347.25 108.125V125.625C340.875 130.917 332.292 133.562 321.5 133.562C308.792 133.562 298.833 129.521 291.625 121.438C284.708 113.729 281.25 103.521 281.25 90.8125C281.25 77.3542 285.042 66.75 292.625 59C300.292 51.2083 311.417 47.3125 326 47.3125ZM404.562 128.125C398.646 131.333 393.292 132.938 388.5 132.938C383.708 132.938 379.604 132.5 376.188 131.625C372.771 130.708 369.875 129.375 367.5 127.625C362.667 124.083 360.25 118.958 360.25 112.25C360.25 106.25 363.208 101.25 369.125 97.25C375.542 92.9167 384.25 90.75 395.25 90.75L397.75 90.8125C398.25 90.8542 398.812 90.8958 399.438 90.9375C400.062 90.9375 400.625 90.9792 401.125 91.0625C400.792 84.3958 397.917 80.5 392.5 79.375C390.708 79 388.792 78.8125 386.75 78.8125C384.75 78.8125 382.771 79 380.812 79.375C378.896 79.7083 377.021 80.1667 375.188 80.75C371.146 82.0417 368.25 83.5208 366.5 85.1875L366.312 85.0625L364.438 71.25C371.812 67.375 379.875 65.4375 388.625 65.4375C402.208 65.4375 410.896 70.3333 414.688 80.125C415.896 83.25 416.5 86.7708 416.5 90.6875V113.312C416.5 118.146 418.208 121.438 421.625 123.188L410.312 133.562C407.938 132.312 406.021 130.5 404.562 128.125ZM401.188 102.312C400.062 102.104 398.896 102 397.688 102H395.188C385.979 102 380.125 104.042 377.625 108.125C376.875 109.333 376.5 110.604 376.5 111.938C376.5 113.271 376.729 114.458 377.188 115.5C377.688 116.5 378.5 117.333 379.625 118C381.792 119.25 385 119.875 389.25 119.875C393.542 119.875 397.542 118.854 401.25 116.812C401.208 116.354 401.188 115.875 401.188 115.375V102.312ZM451.688 69.0625C456.354 66.6458 461.125 65.4375 466 65.4375C470.875 65.4375 475.062 66.2083 478.562 67.75C482.104 69.25 485.208 71.4167 487.875 74.25C493.667 80.5417 496.562 88.5 496.562 98.125C496.562 108.667 493.417 117.167 487.125 123.625C481.083 129.833 473.562 132.938 464.562 132.938C456.646 132.938 450.125 130.875 445 126.75C439.25 122.083 436.375 115.646 436.375 107.438V39H451.688V69.0625ZM451.688 107.25C451.688 114.583 456.25 118.25 465.375 118.25C469.833 118.25 473.583 116.292 476.625 112.375C479.708 108.375 481.25 103.396 481.25 97.4375C481.25 91.4375 479.625 86.9167 476.375 83.875C473.458 81.1667 469.542 79.8125 464.625 79.8125C461.667 79.8125 458.396 80.8125 454.812 82.8125C453.688 83.4375 452.646 84.125 451.688 84.875V107.25ZM525.938 69.0625C530.604 66.6458 535.375 65.4375 540.25 65.4375C545.125 65.4375 549.312 66.2083 552.812 67.75C556.354 69.25 559.458 71.4167 562.125 74.25C567.917 80.5417 570.812 88.5 570.812 98.125C570.812 108.667 567.667 117.167 561.375 123.625C555.333 129.833 547.812 132.938 538.812 132.938C530.896 132.938 524.375 130.875 519.25 126.75C513.5 122.083 510.625 115.646 510.625 107.438V39H525.938V69.0625ZM525.938 107.25C525.938 114.583 530.5 118.25 539.625 118.25C544.083 118.25 547.833 116.292 550.875 112.375C553.958 108.375 555.5 103.396 555.5 97.4375C555.5 91.4375 553.875 86.9167 550.625 83.875C547.708 81.1667 543.792 79.8125 538.875 79.8125C535.917 79.8125 532.646 80.8125 529.062 82.8125C527.938 83.4375 526.896 84.125 525.938 84.875V107.25ZM578.562 153.75L582.688 150.438C588.896 145.396 594.042 137.958 598.125 128.125L601 121.188L577.062 66.6875H594.562L609.562 104.438L623.5 66.6875H641.5C639.333 69.6875 636.688 75.2708 633.562 83.4375L624.188 106.625C611.646 136.125 601.812 153.708 594.688 159.375L578.562 153.75Z" />
	</mask>
	<path d="M326 47.3125C333.792 47.3125 340.438 48.6667 345.938 51.375V70.5L345.812 70.625C343.479 67.0417 338.562 64.6667 331.062 63.5C328.854 63.125 326.062 62.9375 322.688 62.9375C319.312 62.9375 316 63.5833 312.75 64.875C309.5 66.125 306.833 67.9167 304.75 70.25C300.708 74.7917 298.688 81.2708 298.688 89.6875C298.688 99.4792 301.25 106.771 306.375 111.562C310.625 115.562 316.25 117.562 323.25 117.562C331.167 117.562 337.583 115.875 342.5 112.5C344.292 111.292 345.812 109.792 347.062 108L347.25 108.125V125.625C340.875 130.917 332.292 133.562 321.5 133.562C308.792 133.562 298.833 129.521 291.625 121.438C284.708 113.729 281.25 103.521 281.25 90.8125C281.25 77.3542 285.042 66.75 292.625 59C300.292 51.2083 311.417 47.3125 326 47.3125ZM404.562 128.125C398.646 131.333 393.292 132.938 388.5 132.938C383.708 132.938 379.604 132.5 376.188 131.625C372.771 130.708 369.875 129.375 367.5 127.625C362.667 124.083 360.25 118.958 360.25 112.25C360.25 106.25 363.208 101.25 369.125 97.25C375.542 92.9167 384.25 90.75 395.25 90.75L397.75 90.8125C398.25 90.8542 398.812 90.8958 399.438 90.9375C400.062 90.9375 400.625 90.9792 401.125 91.0625C400.792 84.3958 397.917 80.5 392.5 79.375C390.708 79 388.792 78.8125 386.75 78.8125C384.75 78.8125 382.771 79 380.812 79.375C378.896 79.7083 377.021 80.1667 375.188 80.75C371.146 82.0417 368.25 83.5208 366.5 85.1875L366.312 85.0625L364.438 71.25C371.812 67.375 379.875 65.4375 388.625 65.4375C402.208 65.4375 410.896 70.3333 414.688 80.125C415.896 83.25 416.5 86.7708 416.5 90.6875V113.312C416.5 118.146 418.208 121.438 421.625 123.188L410.312 133.562C407.938 132.312 406.021 130.5 404.562 128.125ZM401.188 102.312C400.062 102.104 398.896 102 397.688 102H395.188C385.979 102 380.125 104.042 377.625 108.125C376.875 109.333 376.5 110.604 376.5 111.938C376.5 113.271 376.729 114.458 377.188 115.5C377.688 116.5 378.5 117.333 379.625 118C381.792 119.25 385 119.875 389.25 119.875C393.542 119.875 397.542 118.854 401.25 116.812C401.208 116.354 401.188 115.875 401.188 115.375V102.312ZM451.688 69.0625C456.354 66.6458 461.125 65.4375 466 65.4375C470.875 65.4375 475.062 66.2083 478.562 67.75C482.104 69.25 485.208 71.4167 487.875 74.25C493.667 80.5417 496.562 88.5 496.562 98.125C496.562 108.667 493.417 117.167 487.125 123.625C481.083 129.833 473.562 132.938 464.562 132.938C456.646 132.938 450.125 130.875 445 126.75C439.25 122.083 436.375 115.646 436.375 107.438V39H451.688V69.0625ZM451.688 107.25C451.688 114.583 456.25 118.25 465.375 118.25C469.833 118.25 473.583 116.292 476.625 112.375C479.708 108.375 481.25 103.396 481.25 97.4375C481.25 91.4375 479.625 86.9167 476.375 83.875C473.458 81.1667 469.542 79.8125 464.625 79.8125C461.667 79.8125 458.396 80.8125 454.812 82.8125C453.688 83.4375 452.646 84.125 451.688 84.875V107.25ZM525.938 69.0625C530.604 66.6458 535.375 65.4375 540.25 65.4375C545.125 65.4375 549.312 66.2083 552.812 67.75C556.354 69.25 559.458 71.4167 562.125 74.25C567.917 80.5417 570.812 88.5 570.812 98.125C570.812 108.667 567.667 117.167 561.375 123.625C555.333 129.833 547.812 132.938 538.812 132.938C530.896 132.938 524.375 130.875 519.25 126.75C513.5 122.083 510.625 115.646 510.625 107.438V39H525.938V69.0625ZM525.938 107.25C525.938 114.583 530.5 118.25 539.625 118.25C544.083 118.25 547.833 116.292 550.875 112.375C553.958 108.375 555.5 103.396 555.5 97.4375C555.5 91.4375 553.875 86.9167 550.625 83.875C547.708 81.1667 543.792 79.8125 538.875 79.8125C535.917 79.8125 532.646 80.8125 529.062 82.8125C527.938 83.4375 526.896 84.125 525.938 84.875V107.25ZM578.562 153.75L582.688 150.438C588.896 145.396 594.042 137.958 598.125 128.125L601 121.188L577.062 66.6875H594.562L609.562 104.438L623.5 66.6875H641.5C639.333 69.6875 636.688 75.2708 633.562 83.4375L624.188 106.625C611.646 136.125 601.812 153.708 594.688 159.375L578.562 153.75Z" fill="white" />
	<path d="M345.938 51.375H352.938V47.0193L349.03 45.0951L345.938 51.375ZM345.938 70.5L350.887 75.4497L352.938 73.3995V70.5H345.938ZM345.812 70.625L339.947 74.4447L344.658 81.6795L350.762 75.5747L345.812 70.625ZM331.062 63.5L329.891 70.4012L329.939 70.4093L329.987 70.4168L331.062 63.5ZM312.75 64.875L315.263 71.4084L315.299 71.3944L315.335 71.3801L312.75 64.875ZM304.75 70.25L299.528 65.5879L299.521 65.5965L304.75 70.25ZM306.375 111.562L311.173 106.465L311.164 106.457L311.156 106.449L306.375 111.562ZM342.5 112.5L338.586 106.696L338.562 106.713L338.538 106.729L342.5 112.5ZM347.062 108L350.945 102.176L345.243 98.3741L341.322 103.995L347.062 108ZM347.25 108.125H354.25V104.379L351.133 102.301L347.25 108.125ZM347.25 125.625L351.721 131.011L354.25 128.912V125.625H347.25ZM291.625 121.438L296.849 116.779L296.842 116.771L296.835 116.763L291.625 121.438ZM292.625 59L287.635 54.0904L287.629 54.0974L287.622 54.1043L292.625 59ZM326 47.3125V54.3125C333.001 54.3125 338.532 55.5309 342.845 57.6549L345.938 51.375L349.03 45.0951C342.343 41.8025 334.582 40.3125 326 40.3125V47.3125ZM345.938 51.375H338.938V70.5H345.938H352.938V51.375H345.938ZM345.938 70.5L340.988 65.5503L340.863 65.6753L345.812 70.625L350.762 75.5747L350.887 75.4497L345.938 70.5ZM345.812 70.625L351.678 66.8053C347.667 60.6447 340.18 57.8341 332.138 56.5832L331.062 63.5L329.987 70.4168C336.945 71.4992 339.291 73.4386 339.947 74.4447L345.812 70.625ZM331.062 63.5L332.234 56.5988C329.497 56.134 326.279 55.9375 322.688 55.9375V62.9375V69.9375C325.846 69.9375 328.211 70.116 329.891 70.4012L331.062 63.5ZM322.688 62.9375V55.9375C318.395 55.9375 314.207 56.7633 310.165 58.3699L312.75 64.875L315.335 71.3801C317.793 70.4033 320.23 69.9375 322.688 69.9375V62.9375ZM312.75 64.875L310.237 58.3416C306.068 59.9453 302.434 62.334 299.528 65.5879L304.75 70.25L309.972 74.9121C311.233 73.4994 312.932 72.3047 315.263 71.4084L312.75 64.875ZM304.75 70.25L299.521 65.5965C293.965 71.8399 291.688 80.2158 291.688 89.6875H298.688H305.688C305.688 82.3259 307.452 77.7435 309.979 74.9035L304.75 70.25ZM298.688 89.6875H291.688C291.688 100.63 294.566 110.105 301.594 116.676L306.375 111.562L311.156 106.449C307.934 103.437 305.688 98.3284 305.688 89.6875H298.688ZM306.375 111.562L301.577 116.66C307.377 122.118 314.844 124.562 323.25 124.562V117.562V110.562C317.656 110.562 313.873 109.007 311.173 106.465L306.375 111.562ZM323.25 117.562V124.562C332.125 124.562 340.052 122.671 346.462 118.271L342.5 112.5L338.538 106.729C335.114 109.079 330.208 110.562 323.25 110.562V117.562ZM342.5 112.5L346.414 118.304C348.928 116.608 351.066 114.496 352.803 112.005L347.062 108L341.322 103.995C340.559 105.088 339.655 105.975 338.586 106.696L342.5 112.5ZM347.062 108L343.18 113.824L343.367 113.949L347.25 108.125L351.133 102.301L350.945 102.176L347.062 108ZM347.25 108.125H340.25V125.625H347.25H354.25V108.125H347.25ZM347.25 125.625L342.779 120.239C337.999 124.207 331.16 126.562 321.5 126.562V133.562V140.562C333.424 140.562 343.751 137.626 351.721 131.011L347.25 125.625ZM321.5 133.562V126.562C310.407 126.562 302.496 123.111 296.849 116.779L291.625 121.438L286.401 126.096C295.171 135.931 307.176 140.562 321.5 140.562V133.562ZM291.625 121.438L296.835 116.763C291.318 110.614 288.25 102.205 288.25 90.8125H281.25H274.25C274.25 104.837 278.099 116.844 286.415 126.112L291.625 121.438ZM281.25 90.8125H288.25C288.25 78.7185 291.617 70.0386 297.628 63.8957L292.625 59L287.622 54.1043C278.466 63.4614 274.25 75.9898 274.25 90.8125H281.25ZM292.625 59L297.615 63.9096C303.571 57.8561 312.644 54.3125 326 54.3125V47.3125V40.3125C310.19 40.3125 297.012 44.5605 287.635 54.0904L292.625 59ZM404.562 128.125L410.528 124.462L407.057 118.81L401.226 121.971L404.562 128.125ZM376.188 131.625L374.374 138.386L374.412 138.396L374.451 138.406L376.188 131.625ZM367.5 127.625L371.652 121.99L371.645 121.984L371.637 121.979L367.5 127.625ZM369.125 97.25L365.207 91.4489L365.204 91.4509L369.125 97.25ZM395.25 90.75L395.425 83.7522L395.337 83.75H395.25V90.75ZM397.75 90.8125L398.331 83.8367L398.128 83.8198L397.925 83.8147L397.75 90.8125ZM399.438 90.9375L398.972 97.922L399.204 97.9375H399.438V90.9375ZM401.125 91.0625L399.974 97.9673L408.55 99.3966L408.116 90.7129L401.125 91.0625ZM392.5 79.375L391.066 86.2265L391.077 86.2287L392.5 79.375ZM380.812 79.375L382.012 86.2715L382.071 86.2613L382.129 86.2501L380.812 79.375ZM375.188 80.75L373.065 74.0795L373.057 74.0822L375.188 80.75ZM366.5 85.1875L362.617 91.0119L367.274 94.1167L371.328 90.2565L366.5 85.1875ZM366.312 85.0625L359.376 86.0041L359.801 89.1345L362.43 90.8869L366.312 85.0625ZM364.438 71.25L361.182 65.0533L356.842 67.3336L357.501 72.1916L364.438 71.25ZM414.688 80.125L421.216 77.6005L421.215 77.5973L414.688 80.125ZM421.625 123.188L426.356 128.346L433.773 121.545L424.816 116.957L421.625 123.188ZM410.312 133.562L407.052 139.757L411.413 142.052L415.044 138.721L410.312 133.562ZM401.188 102.312H408.188V96.4898L402.462 95.4295L401.188 102.312ZM377.625 108.125L383.572 111.817L383.584 111.798L383.595 111.78L377.625 108.125ZM377.188 115.5L370.78 118.319L370.85 118.477L370.927 118.63L377.188 115.5ZM379.625 118L376.056 124.022L376.092 124.043L376.127 124.063L379.625 118ZM401.25 116.812L404.626 122.945L408.636 120.737L408.221 116.179L401.25 116.812ZM404.562 128.125L401.226 121.971C395.942 124.837 391.75 125.938 388.5 125.938V132.938V139.938C394.833 139.938 401.35 137.83 407.899 134.279L404.562 128.125ZM388.5 132.938V125.938C384.1 125.938 380.612 125.532 377.924 124.844L376.188 131.625L374.451 138.406C378.596 139.468 383.316 139.938 388.5 139.938V132.938ZM376.188 131.625L378.001 124.864C375.264 124.13 373.2 123.13 371.652 121.99L367.5 127.625L363.348 133.26C366.55 135.62 370.278 137.287 374.374 138.386L376.188 131.625ZM367.5 127.625L371.637 121.979C368.838 119.927 367.25 117.035 367.25 112.25H360.25H353.25C353.25 120.882 356.495 128.239 363.363 133.271L367.5 127.625ZM360.25 112.25H367.25C367.25 109.04 368.633 106.032 373.046 103.049L369.125 97.25L365.204 91.4509C357.783 96.4681 353.25 103.46 353.25 112.25H360.25ZM369.125 97.25L373.043 103.051C377.91 99.7641 385.083 97.75 395.25 97.75V90.75V83.75C383.417 83.75 373.173 86.0693 365.207 91.4489L369.125 97.25ZM395.25 90.75L395.075 97.7478L397.575 97.8103L397.75 90.8125L397.925 83.8147L395.425 83.7522L395.25 90.75ZM397.75 90.8125L397.169 97.7883C397.715 97.8339 398.317 97.8784 398.972 97.922L399.438 90.9375L399.903 83.953C399.308 83.9133 398.785 83.8745 398.331 83.8367L397.75 90.8125ZM399.438 90.9375V97.9375C399.762 97.9375 399.93 97.9599 399.974 97.9673L401.125 91.0625L402.276 84.1577C401.32 83.9984 400.363 83.9375 399.438 83.9375V90.9375ZM401.125 91.0625L408.116 90.7129C407.906 86.5086 406.862 82.386 404.351 78.9841C401.745 75.4521 398.062 73.3808 393.923 72.5213L392.5 79.375L391.077 86.2287C392.355 86.4942 392.818 86.9334 393.086 87.2971C393.451 87.7911 394.011 88.9498 394.134 91.4121L401.125 91.0625ZM392.5 79.375L393.934 72.5235C391.62 72.0392 389.219 71.8125 386.75 71.8125V78.8125V85.8125C388.364 85.8125 389.796 85.9608 391.066 86.2265L392.5 79.375ZM386.75 78.8125V71.8125C384.31 71.8125 381.89 72.0416 379.496 72.4999L380.812 79.375L382.129 86.2501C383.652 85.9584 385.19 85.8125 386.75 85.8125V78.8125ZM380.812 79.375L379.613 72.4785C377.387 72.8656 375.204 73.399 373.065 74.0795L375.188 80.75L377.31 87.4205C378.838 86.9344 380.404 86.5511 382.012 86.2715L380.812 79.375ZM375.188 80.75L373.057 74.0822C368.659 75.4877 364.565 77.3635 361.672 80.1185L366.5 85.1875L371.328 90.2565C371.935 89.6782 373.633 88.5957 377.318 87.4178L375.188 80.75ZM366.5 85.1875L370.383 79.3631L370.195 79.2381L366.312 85.0625L362.43 90.8869L362.617 91.0119L366.5 85.1875ZM366.312 85.0625L373.249 84.1209L371.374 70.3084L364.438 71.25L357.501 72.1916L359.376 86.0041L366.312 85.0625ZM364.438 71.25L367.693 77.4467C374.013 74.126 380.95 72.4375 388.625 72.4375V65.4375V58.4375C378.8 58.4375 369.612 60.6239 361.182 65.0533L364.438 71.25ZM388.625 65.4375V72.4375C394.63 72.4375 398.909 73.5267 401.891 75.2077C404.744 76.815 406.816 79.1826 408.16 82.6527L414.688 80.125L421.215 77.5973C418.767 71.2757 414.6 66.2996 408.765 63.0111C403.06 59.7962 396.203 58.4375 388.625 58.4375V65.4375ZM414.688 80.125L408.159 82.6495C409.008 84.8456 409.5 87.4908 409.5 90.6875H416.5H423.5C423.5 86.0509 422.784 81.6544 421.216 77.6005L414.688 80.125ZM416.5 90.6875H409.5V113.312H416.5H423.5V90.6875H416.5ZM416.5 113.312H409.5C409.5 119.964 412.037 126.141 418.434 129.418L421.625 123.188L424.816 116.957C424.38 116.734 423.5 116.328 423.5 113.312H416.5ZM421.625 123.188L416.894 118.029L405.581 128.404L410.312 133.562L415.044 138.721L426.356 128.346L421.625 123.188ZM410.312 133.562L413.573 127.368C412.354 126.727 411.355 125.809 410.528 124.462L404.562 128.125L398.597 131.788C400.687 135.191 403.521 137.898 407.052 139.757L410.312 133.562ZM401.188 102.312L402.462 95.4295C400.894 95.1391 399.3 95 397.688 95V102V109C398.492 109 399.231 109.069 399.913 109.195L401.188 102.312ZM397.688 102V95H395.188V102V109H397.688V102ZM395.188 102V95C385.699 95 376.248 96.9678 371.655 104.47L377.625 108.125L383.595 111.78C384.002 111.115 386.259 109 395.188 109V102ZM377.625 108.125L371.678 104.433C370.287 106.673 369.5 109.212 369.5 111.938H376.5H383.5C383.5 111.933 383.5 111.938 383.499 111.947C383.497 111.956 383.496 111.963 383.495 111.965C383.494 111.967 383.497 111.958 383.507 111.936C383.518 111.913 383.537 111.873 383.572 111.817L377.625 108.125ZM376.5 111.938H369.5C369.5 114.077 369.87 116.25 370.78 118.319L377.188 115.5L383.595 112.681C383.589 112.667 383.5 112.465 383.5 111.938H376.5ZM377.188 115.5L370.927 118.63C372.124 121.025 373.975 122.789 376.056 124.022L379.625 118L383.194 111.978C383.096 111.92 383.112 111.914 383.184 111.988C383.261 112.068 383.362 112.197 383.448 112.37L377.188 115.5ZM379.625 118L376.127 124.063C379.861 126.218 384.527 126.875 389.25 126.875V119.875V112.875C385.473 112.875 383.722 112.282 383.123 111.937L379.625 118ZM389.25 119.875V126.875C394.705 126.875 399.869 125.564 404.626 122.945L401.25 116.812L397.874 110.68C395.215 112.145 392.378 112.875 389.25 112.875V119.875ZM401.25 116.812L408.221 116.179C408.2 115.948 408.188 115.681 408.188 115.375H401.188H394.188C394.188 116.069 394.216 116.76 394.279 117.446L401.25 116.812ZM401.188 115.375H408.188V102.312H401.188H394.188V115.375H401.188ZM451.688 69.0625H444.688V80.5704L454.906 75.2785L451.688 69.0625ZM478.562 67.75L475.741 74.1561L475.787 74.1762L475.833 74.1957L478.562 67.75ZM487.875 74.25L493.025 69.5091L492.999 69.4806L492.972 69.4524L487.875 74.25ZM487.125 123.625L482.111 118.74L482.108 118.743L487.125 123.625ZM445 126.75L440.589 132.185L440.6 132.194L440.611 132.203L445 126.75ZM436.375 39V32H429.375V39H436.375ZM451.688 39H458.688V32H451.688V39ZM476.625 112.375L482.154 116.669L482.161 116.659L482.169 116.649L476.625 112.375ZM476.375 83.875L481.158 78.7642L481.148 78.7548L481.138 78.7454L476.375 83.875ZM454.812 82.8125L458.212 88.9316L458.224 88.9249L454.812 82.8125ZM451.688 84.875L447.373 79.3625L444.688 81.4644V84.875H451.688ZM451.688 69.0625L454.906 75.2785C458.658 73.3358 462.331 72.4375 466 72.4375V65.4375V58.4375C459.919 58.4375 454.051 59.9559 448.469 62.8465L451.688 69.0625ZM466 65.4375V72.4375C470.16 72.4375 473.338 73.0979 475.741 74.1561L478.562 67.75L481.384 61.3439C476.787 59.3188 471.59 58.4375 466 58.4375V65.4375ZM478.562 67.75L475.833 74.1957C478.469 75.3121 480.769 76.9136 482.778 79.0476L487.875 74.25L492.972 69.4524C489.648 65.9198 485.74 63.1879 481.292 61.3043L478.562 67.75ZM487.875 74.25L482.725 78.9909C487.175 83.8255 489.562 90.0188 489.562 98.125H496.562H503.562C503.562 86.9812 500.158 77.2578 493.025 69.5091L487.875 74.25ZM496.562 98.125H489.562C489.562 107.174 486.915 113.809 482.111 118.74L487.125 123.625L492.139 128.51C499.918 120.524 503.562 110.16 503.562 98.125H496.562ZM487.125 123.625L482.108 118.743C477.441 123.539 471.755 125.938 464.562 125.938V132.938V139.938C475.37 139.938 484.726 136.127 492.142 128.507L487.125 123.625ZM464.562 132.938V125.938C457.906 125.938 453.031 124.228 449.389 121.297L445 126.75L440.611 132.203C447.219 137.522 455.386 139.938 464.562 139.938V132.938ZM445 126.75L449.411 121.315C445.49 118.133 443.375 113.796 443.375 107.438H436.375H429.375C429.375 117.495 433.01 126.034 440.589 132.185L445 126.75ZM436.375 107.438H443.375V39H436.375H429.375V107.438H436.375ZM436.375 39V46H451.688V39V32H436.375V39ZM451.688 39H444.688V69.0625H451.688H458.688V39H451.688ZM451.688 107.25H444.688C444.688 112.451 446.381 117.466 450.724 120.956C454.776 124.212 460.059 125.25 465.375 125.25V118.25V111.25C461.566 111.25 460.006 110.455 459.494 110.044C459.275 109.868 458.688 109.383 458.688 107.25H451.688ZM465.375 118.25V125.25C472.258 125.25 477.956 122.073 482.154 116.669L476.625 112.375L471.096 108.081C469.211 110.51 467.408 111.25 465.375 111.25V118.25ZM476.625 112.375L482.169 116.649C486.358 111.214 488.25 104.654 488.25 97.4375H481.25H474.25C474.25 102.138 473.058 105.536 471.081 108.101L476.625 112.375ZM481.25 97.4375H488.25C488.25 90.2014 486.264 83.5422 481.158 78.7642L476.375 83.875L471.592 88.9858C472.986 90.2911 474.25 92.6736 474.25 97.4375H481.25ZM476.375 83.875L481.138 78.7454C476.639 74.5679 470.873 72.8125 464.625 72.8125V79.8125V86.8125C468.211 86.8125 470.277 87.7655 471.612 89.0046L476.375 83.875ZM464.625 79.8125V72.8125C460.099 72.8125 455.643 74.3323 451.401 76.7001L454.812 82.8125L458.224 88.9249C461.148 87.2927 463.235 86.8125 464.625 86.8125V79.8125ZM454.812 82.8125L451.413 76.6934C449.986 77.4862 448.636 78.3741 447.373 79.3625L451.688 84.875L456.002 90.3875C456.655 89.8759 457.389 89.3888 458.212 88.9316L454.812 82.8125ZM451.688 84.875H444.688V107.25H451.688H458.688V84.875H451.688ZM525.938 69.0625H518.938V80.5704L529.156 75.2785L525.938 69.0625ZM552.812 67.75L549.991 74.1561L550.037 74.1762L550.083 74.1957L552.812 67.75ZM562.125 74.25L567.275 69.5091L567.249 69.4806L567.222 69.4524L562.125 74.25ZM561.375 123.625L556.361 118.74L556.358 118.743L561.375 123.625ZM519.25 126.75L514.839 132.185L514.85 132.194L514.861 132.203L519.25 126.75ZM510.625 39V32H503.625V39H510.625ZM525.938 39H532.938V32H525.938V39ZM550.875 112.375L556.404 116.669L556.411 116.659L556.419 116.649L550.875 112.375ZM550.625 83.875L555.408 78.7642L555.398 78.7548L555.388 78.7454L550.625 83.875ZM529.062 82.8125L532.462 88.9316L532.474 88.9249L529.062 82.8125ZM525.938 84.875L521.623 79.3625L518.938 81.4644V84.875H525.938ZM525.938 69.0625L529.156 75.2785C532.908 73.3358 536.581 72.4375 540.25 72.4375V65.4375V58.4375C534.169 58.4375 528.301 59.9559 522.719 62.8465L525.938 69.0625ZM540.25 65.4375V72.4375C544.41 72.4375 547.588 73.0979 549.991 74.1561L552.812 67.75L555.634 61.3439C551.037 59.3188 545.84 58.4375 540.25 58.4375V65.4375ZM552.812 67.75L550.083 74.1957C552.719 75.3121 555.019 76.9136 557.028 79.0476L562.125 74.25L567.222 69.4524C563.898 65.9198 559.99 63.1879 555.542 61.3043L552.812 67.75ZM562.125 74.25L556.975 78.9909C561.425 83.8255 563.812 90.0188 563.812 98.125H570.812H577.812C577.812 86.9812 574.408 77.2578 567.275 69.5091L562.125 74.25ZM570.812 98.125H563.812C563.812 107.174 561.165 113.809 556.361 118.74L561.375 123.625L566.389 128.51C574.168 120.524 577.812 110.16 577.812 98.125H570.812ZM561.375 123.625L556.358 118.743C551.691 123.539 546.005 125.938 538.812 125.938V132.938V139.938C549.62 139.938 558.976 136.127 566.392 128.507L561.375 123.625ZM538.812 132.938V125.938C532.156 125.938 527.281 124.228 523.639 121.297L519.25 126.75L514.861 132.203C521.469 137.522 529.636 139.938 538.812 139.938V132.938ZM519.25 126.75L523.661 121.315C519.74 118.133 517.625 113.796 517.625 107.438H510.625H503.625C503.625 117.495 507.26 126.034 514.839 132.185L519.25 126.75ZM510.625 107.438H517.625V39H510.625H503.625V107.438H510.625ZM510.625 39V46H525.938V39V32H510.625V39ZM525.938 39H518.938V69.0625H525.938H532.938V39H525.938ZM525.938 107.25H518.938C518.938 112.451 520.631 117.466 524.974 120.956C529.026 124.212 534.309 125.25 539.625 125.25V118.25V111.25C535.816 111.25 534.256 110.455 533.744 110.044C533.525 109.868 532.938 109.383 532.938 107.25H525.938ZM539.625 118.25V125.25C546.508 125.25 552.206 122.073 556.404 116.669L550.875 112.375L545.346 108.081C543.461 110.51 541.658 111.25 539.625 111.25V118.25ZM550.875 112.375L556.419 116.649C560.608 111.214 562.5 104.654 562.5 97.4375H555.5H548.5C548.5 102.138 547.308 105.536 545.331 108.101L550.875 112.375ZM555.5 97.4375H562.5C562.5 90.2014 560.514 83.5422 555.408 78.7642L550.625 83.875L545.842 88.9858C547.236 90.2911 548.5 92.6736 548.5 97.4375H555.5ZM550.625 83.875L555.388 78.7454C550.889 74.5679 545.123 72.8125 538.875 72.8125V79.8125V86.8125C542.461 86.8125 544.527 87.7655 545.862 89.0046L550.625 83.875ZM538.875 79.8125V72.8125C534.349 72.8125 529.893 74.3323 525.651 76.7001L529.062 82.8125L532.474 88.9249C535.398 87.2927 537.485 86.8125 538.875 86.8125V79.8125ZM529.062 82.8125L525.663 76.6934C524.236 77.4862 522.886 78.3741 521.623 79.3625L525.938 84.875L530.252 90.3875C530.905 89.8759 531.639 89.3888 532.462 88.9316L529.062 82.8125ZM525.938 84.875H518.938V107.25H525.938H532.938V84.875H525.938ZM578.562 153.75L574.18 148.292L564.332 156.2L576.257 160.359L578.562 153.75ZM582.688 150.438L587.07 155.896L587.085 155.883L587.1 155.871L582.688 150.438ZM598.125 128.125L604.59 130.81L604.592 130.805L598.125 128.125ZM601 121.188L607.467 123.867L608.61 121.108L607.409 118.373L601 121.188ZM577.062 66.6875V59.6875H566.343L570.653 69.5025L577.062 66.6875ZM594.562 66.6875L601.068 64.1026L599.313 59.6875H594.562V66.6875ZM609.562 104.438L603.057 107.022L609.803 123.998L616.129 106.862L609.562 104.438ZM623.5 66.6875V59.6875H618.623L616.933 64.263L623.5 66.6875ZM641.5 66.6875L647.175 70.7859L655.19 59.6875H641.5V66.6875ZM633.562 83.4375L640.052 86.0613L640.077 86.0005L640.1 85.9392L633.562 83.4375ZM624.188 106.625L630.629 109.364L630.654 109.307L630.677 109.249L624.188 106.625ZM594.688 159.375L592.382 165.984L596.025 167.255L599.045 164.854L594.688 159.375ZM578.562 153.75L582.945 159.208L587.07 155.896L582.688 150.438L578.305 144.979L574.18 148.292L578.562 153.75ZM582.688 150.438L587.1 155.871C594.459 149.895 600.203 141.374 604.59 130.81L598.125 128.125L591.66 125.44C587.88 134.543 583.332 140.896 578.275 145.004L582.688 150.438ZM598.125 128.125L604.592 130.805L607.467 123.867L601 121.188L594.533 118.508L591.658 125.445L598.125 128.125ZM601 121.188L607.409 118.373L583.472 63.8725L577.062 66.6875L570.653 69.5025L594.591 124.002L601 121.188ZM577.062 66.6875V73.6875H594.562V66.6875V59.6875H577.062V66.6875ZM594.562 66.6875L588.057 69.2724L603.057 107.022L609.562 104.438L616.068 101.853L601.068 64.1026L594.562 66.6875ZM609.562 104.438L616.129 106.862L630.067 69.112L623.5 66.6875L616.933 64.263L602.996 102.013L609.562 104.438ZM623.5 66.6875V73.6875H641.5V66.6875V59.6875H623.5V66.6875ZM641.5 66.6875L635.825 62.5891C633.07 66.4036 630.153 72.7611 627.025 80.9358L633.562 83.4375L640.1 85.9392C643.222 77.7806 645.596 72.9714 647.175 70.7859L641.5 66.6875ZM633.562 83.4375L627.073 80.8137L617.698 104.001L624.188 106.625L630.677 109.249L640.052 86.0613L633.562 83.4375ZM624.188 106.625L617.746 103.886C611.523 118.523 606.041 130.038 601.297 138.521C596.415 147.25 592.732 151.986 590.33 153.896L594.688 159.375L599.045 164.854C603.768 161.097 608.564 154.209 613.516 145.354C618.605 136.254 624.31 124.227 630.629 109.364L624.188 106.625ZM594.688 159.375L596.993 152.766L580.868 147.141L578.562 153.75L576.257 160.359L592.382 165.984L594.688 159.375Z" fill="black" mask="url(#path-29-outside-1_0_1)" />
</svg>
